<svg width="120" height="120" viewBox="0 0 120 120" fill="none" xmlns="http://www.w3.org/2000/svg">
<g clip-path="url(#clip0_79_97)">
<path d="M119.278 96.6619L101.84 72.812C97.997 67.5563 92.2466 64.056 86.0198 63.0582C90.0639 57.0558 92.2337 49.9974 92.2337 42.5583C92.2337 22.2464 75.7087 5.72144 55.3967 5.72144C35.0848 5.72144 18.5598 22.2464 18.5598 42.5583C18.5598 49.6739 20.5933 56.5808 24.4408 62.5321C27.8022 67.732 32.3941 71.9787 37.7989 74.9202C38.7979 78.9653 42.4412 82.0013 46.7283 82.0966L68.7317 82.5856C69.3032 82.5983 69.6623 82.9075 69.8255 83.0907C69.9888 83.2739 70.2548 83.6665 70.2016 84.2357C70.1295 85.0082 69.4714 85.6056 68.698 85.6056C68.6902 85.6056 68.6822 85.6054 68.6745 85.6054L43.396 85.2131C42.0024 85.1913 40.642 84.6917 39.5656 83.8062L17.1819 65.3937C12.909 61.8785 6.6043 62.2931 2.82802 66.3369C0.906807 68.3944 -0.0949776 71.0765 0.0070976 73.8897C0.109173 76.7029 1.30313 79.3054 3.36909 81.2179L31.8249 107.563C35.3448 110.822 39.9232 112.705 44.7173 112.865L86.9792 114.276C87.0218 114.277 87.064 114.278 87.1064 114.278C89.116 114.278 90.7779 112.683 90.8455 110.659C90.9144 108.593 89.2954 106.862 87.229 106.793L44.9674 105.382C41.972 105.282 39.1109 104.105 36.9116 102.069L8.45613 75.7243C7.8624 75.1747 7.51923 74.4268 7.48978 73.6182C7.46033 72.8098 7.74834 72.0389 8.30064 71.4476C9.38579 70.2856 11.1979 70.1666 12.4258 71.1763L34.8095 89.5891C37.1902 91.5472 40.1985 92.6518 43.28 92.6997L68.5585 93.0921C68.6051 93.0928 68.651 93.0933 68.6977 93.0933C73.3058 93.0928 77.2279 89.5332 77.6569 84.9305C77.8875 82.4535 77.0709 79.9678 75.416 78.1105C73.761 76.2532 71.3854 75.156 68.8981 75.1006L46.8948 74.6117C45.9015 74.5895 45.0764 73.7954 45.017 72.8036C44.9741 72.0888 45.3185 71.6044 45.5274 71.3792C45.7363 71.1541 46.1938 70.7745 46.9095 70.764L82.0581 70.2532C82.2378 70.2507 82.4167 70.2512 82.5944 70.2534C87.7224 70.3305 92.6577 72.9391 95.7961 77.2315L113.235 101.081C114.455 102.75 116.797 103.114 118.466 101.894C120.135 100.673 120.499 98.3311 119.278 96.6619ZM46.8005 63.2779C44.2433 63.3148 41.7791 64.4114 40.0395 66.2857C39.7897 66.555 39.5591 66.839 39.3442 67.1338C35.9139 64.8909 32.9769 61.9459 30.7285 58.4681C27.6657 53.7305 26.047 48.2291 26.047 42.5588C26.047 26.3753 39.2132 13.2091 55.3967 13.2091C71.5803 13.2091 84.7465 26.3753 84.7465 42.5588C84.7465 50.2125 81.8657 57.3615 76.6049 62.8449L57.8917 63.1169V61.7572C62.7539 60.6237 66.3879 56.2569 66.3879 51.0546C66.3879 45.852 62.7539 41.4852 57.8917 40.3516V28.6072C59.9577 29.5564 61.3965 31.6438 61.3965 34.0619C61.3965 35.44 62.5138 36.5576 63.8922 36.5576C65.2706 36.5576 66.3879 35.44 66.3879 34.0619C66.3879 28.8596 62.7539 24.4928 57.8917 23.3592V21.6292C57.8917 20.2511 56.7744 19.1335 55.396 19.1335C54.0176 19.1335 52.9003 20.2511 52.9003 21.6292V23.3592C48.0381 24.4928 44.4041 28.8596 44.4041 34.0619C44.4041 39.2642 48.0381 43.6308 52.9003 44.7646V56.5092C50.8343 55.5603 49.3955 53.4729 49.3955 51.0546C49.3955 49.6764 48.2782 48.5588 46.8998 48.5588C45.5214 48.5588 44.4041 49.6764 44.4041 51.0546C44.4041 56.2569 48.0381 60.6234 52.9003 61.7572V63.1893L46.8005 63.2779ZM52.9003 39.5163C50.8343 38.5674 49.3955 36.48 49.3955 34.0617C49.3955 31.6435 50.8343 29.5561 52.9003 28.607V39.5163ZM57.8917 45.5994C59.9577 46.5485 61.3965 48.6359 61.3965 51.0543C61.3965 53.4727 59.9577 55.5601 57.8917 56.509V45.5994Z" fill="#274381"/>
</g>
<defs>
<clipPath id="clip0_79_97">
<rect width="120" height="120" fill="white"/>
</clipPath>
</defs>
</svg>
