<svg width="48" height="48" viewBox="0 0 48 48" fill="none" xmlns="http://www.w3.org/2000/svg">
<path d="M4.5781 36.7898C19.7018 36.7898 28.1811 36.7898 43.3048 36.7898C44.4297 36.7898 45.3395 35.8703 45.3395 34.7552C45.3395 22.0876 36.839 11.6796 25.981 10.5057V8.35371H27.7124C28.8373 8.35371 29.747 7.43421 29.747 6.31907C29.747 5.20393 28.8275 4.28442 27.7124 4.28442H20.1705C19.0456 4.28442 18.1359 5.20393 18.1359 6.31907C18.1359 7.43421 19.0554 8.35371 20.1705 8.35371H21.9019V10.5057C11.044 11.6796 2.54346 22.0876 2.54346 34.7552C2.54346 35.8801 3.46296 36.7898 4.5781 36.7898ZM23.9464 14.4772C33.0142 14.4772 40.4583 22.5277 41.2702 32.8183H6.62253C7.53225 22.5277 14.8785 14.4772 23.9464 14.4772Z" fill="#274381"/>
<path d="M45.9556 39.6462H2.03464C0.909721 39.6462 0 40.5657 0 41.6809C0 42.796 0.919503 43.7155 2.03464 43.7155H45.8578C46.9827 43.7155 48 42.796 48 41.6809C48 40.5657 47.0805 39.6462 45.9556 39.6462Z" fill="#274381"/>
</svg>
