<svg width="47" height="44" viewBox="0 0 47 44" fill="none" xmlns="http://www.w3.org/2000/svg">
<path d="M32.1775 21.0565C33.8218 21.0565 35.466 20.4441 36.7176 19.2191L46.5444 9.60116C47.1518 9.00668 47.1518 8.04282 46.5444 7.44834C45.9369 6.85403 44.9524 6.85403 44.3448 7.44834L37.737 13.9161L36.4961 12.7018L43.3486 5.99487C43.956 5.40038 43.956 4.43653 43.3486 3.84205C42.741 3.24774 41.7566 3.24774 41.149 3.84205L34.2965 10.5489L33.0556 9.33445L39.6637 2.86686C40.2712 2.27238 40.2712 1.30853 39.6637 0.714045C39.0562 0.119732 38.0717 0.119732 37.4641 0.714045L27.6373 10.3318C26.4246 11.5189 25.7567 13.097 25.7567 14.7754C25.7567 14.8378 25.7594 14.8996 25.7613 14.9616L21.3027 19.3255L2.87817 1.29297C2.47018 0.893827 1.87003 0.748377 1.31827 0.915475C0.767023 1.08257 0.355751 1.53465 0.249649 2.08989C-0.638216 6.74173 0.872952 11.5167 4.29187 14.8629L15.0772 25.4188L3.88095 36.3768C3.04941 37.1907 2.59166 38.2726 2.59166 39.4235C2.59166 40.5744 3.04941 41.6563 3.88095 42.4701C4.71248 43.284 5.8179 43.732 6.99383 43.732C8.16976 43.732 9.27518 43.284 10.1067 42.4701L21.303 31.5121L31.9078 41.8912C32.7661 42.7311 33.8933 43.151 35.0207 43.151C36.1481 43.151 37.2753 42.7311 38.1336 41.8912C39.85 40.2113 39.85 37.4778 38.1336 35.7981L27.5286 25.4188L31.9901 21.0522C32.0526 21.0539 32.115 21.0565 32.1775 21.0565ZM35.9339 39.7384C35.4304 40.2312 34.611 40.2312 34.1074 39.7384L23.5025 29.3592L25.329 27.5714L35.9339 37.9507C36.4377 38.4436 36.4377 39.2456 35.9339 39.7384ZM7.9071 40.3173C7.40355 40.8102 6.58411 40.8102 6.08056 40.3173C5.57684 39.8245 5.57684 39.0225 6.08056 38.5297L26.816 18.2353C27.0531 18.5855 27.3271 18.9153 27.6376 19.2191C27.9504 19.5252 28.2876 19.7929 28.643 20.0224L7.9071 40.3173ZM15.7405 18.1869L13.9355 19.9534C13.9283 19.9605 13.922 19.9683 13.915 19.9756L6.49149 12.7101C4.59272 10.8519 3.44099 8.43435 3.17176 5.88561L15.7405 18.1869ZM16.135 22.1062L17.9399 20.3397L19.1032 21.4783L17.2767 23.2661L16.1123 22.1264C16.1198 22.1193 16.1277 22.1133 16.135 22.1062ZM29.8369 12.4844L30.8559 11.4871L35.5372 16.0687L34.518 17.0663C33.2273 18.3295 31.1274 18.3295 29.8367 17.0663C28.5462 15.8032 28.5462 13.7476 29.8369 12.4844Z" fill="#274381"/>
</svg>
