<svg width="67" height="45" viewBox="0 0 67 45" fill="none" xmlns="http://www.w3.org/2000/svg">
<path d="M41.8991 12.6374C37.268 10.4442 29.7871 10.4442 25.1834 12.6374C20.5798 14.8307 20.6072 18.3961 25.2382 20.5893C29.8693 22.7826 37.3502 22.7826 41.9539 20.5893C46.5575 18.3848 46.5301 14.8307 41.8991 12.6374ZM39.7753 16.0904C39.378 16.1916 38.9807 16.3041 38.5833 16.4053C38.3367 16.4615 38.186 16.4728 38.0764 16.4278C38.0216 16.394 37.9668 16.3491 37.912 16.2816C37.6516 15.9329 37.2543 15.6292 36.7199 15.3818C36.6514 15.348 36.5692 15.3143 36.487 15.2806C36.3089 15.2018 36.1445 15.1456 35.9253 15.1006C35.158 14.9544 34.4729 15.1906 34.5688 15.5842C34.6099 15.7867 34.7469 15.9666 34.9114 16.1579C35.1854 16.4728 35.4868 16.7877 35.6786 17.1251C36.3226 18.1824 34.9251 19.2284 32.678 19.3296C31.8697 19.3634 31.1024 19.2846 30.3899 19.0934C30.0748 19.0147 29.8419 19.0147 29.6089 19.1497C29.376 19.2734 29.1157 19.3858 28.8691 19.4983C28.6498 19.5995 28.4169 19.6108 28.1977 19.5096C28.0333 19.4421 27.8826 19.3634 27.7182 19.2959C27.6085 19.2396 27.4989 19.1946 27.3893 19.1384C27.1564 19.0259 27.1838 18.9135 27.403 18.801C27.5811 18.711 27.7593 18.6323 27.9237 18.5423C28.321 18.3511 28.321 18.3398 27.9922 18.1261C27.5811 17.8562 27.2112 17.575 26.9783 17.2601C26.8002 17.0127 26.8413 16.9564 27.3208 16.8214C27.6771 16.7315 28.0196 16.6302 28.3758 16.5403C28.6361 16.4728 28.7869 16.4615 28.8965 16.5065C28.965 16.5403 29.0061 16.5853 29.0609 16.664C29.2938 17.0239 29.6912 17.3388 30.1707 17.6425C30.2529 17.6987 30.3488 17.7437 30.431 17.7887C30.6914 17.9124 30.9928 18.0024 31.3353 18.0699C32.2259 18.2386 33.0206 17.9462 32.9384 17.485C32.911 17.3276 32.8151 17.1926 32.6917 17.0464C32.3903 16.6752 31.993 16.3266 31.7875 15.9329C31.4586 15.3031 31.6093 14.7294 32.6643 14.2795C33.8701 13.7734 35.2128 13.7397 36.6377 14.0546C37.2269 14.1896 37.2132 14.1896 37.6653 13.9759C37.8161 13.8971 37.9668 13.8296 38.1175 13.7622C38.46 13.6047 38.5833 13.6047 38.9259 13.7622C39.0355 13.8071 39.1314 13.8634 39.241 13.9084C39.9672 14.2458 39.9672 14.2458 39.2547 14.5945C38.7477 14.8307 38.7477 14.8307 39.1725 15.1118C39.5013 15.3255 39.7616 15.5505 39.9535 15.7979C40.1042 15.9217 40.0494 16.0229 39.7753 16.0904ZM48.0784 23.4911C46.8041 24.0985 44.7352 24.0985 43.4473 23.4911C42.1731 22.8838 42.1594 21.894 43.4336 21.2867C44.7078 20.6793 46.7767 20.6793 48.0647 21.2867C49.3526 21.894 49.3663 22.8838 48.0784 23.4911ZM23.69 11.9288C22.4157 12.5362 20.3468 12.5362 19.0589 11.9288C17.771 11.3215 17.771 10.3317 19.0452 9.72435C20.3194 9.117 22.3883 9.117 23.6763 9.72435C24.9505 10.3317 24.9642 11.3215 23.69 11.9288ZM65.4106 18.7785L28.8965 1.46878C26.7865 0.467763 23.3611 0.467763 21.2648 1.46878L1.6856 10.8041C-0.41071 11.8051 -0.397009 13.436 1.713 14.437L38.2271 31.7467C40.3371 32.7477 43.7624 32.7477 45.8587 31.7467L65.4243 22.4114C67.5343 21.4104 67.5206 19.7795 65.4106 18.7785ZM46.2561 28.4512C46.0232 28.2713 45.7491 28.1026 45.4203 27.9451C43.2829 26.9328 39.8164 26.9328 37.6927 27.9451C37.5283 28.0238 37.3913 28.1026 37.2406 28.1925L8.89251 14.7519C9.16653 14.662 9.42686 14.5607 9.67348 14.4483C11.7972 13.436 11.7835 11.7939 9.64608 10.7816C9.41316 10.6691 9.16653 10.5679 8.90621 10.4892L20.5935 4.91048C20.7716 5.0342 20.9771 5.14667 21.21 5.25914C23.3474 6.27141 26.8139 6.27141 28.9376 5.25914C29.1842 5.14667 29.3897 5.02295 29.5815 4.88798L58.0255 18.3623C57.6419 18.4748 57.2994 18.5985 56.9705 18.756C54.8468 19.7683 54.8468 21.4216 56.9979 22.4339C57.3268 22.5913 57.6967 22.7151 58.0803 22.8275L46.2561 28.4512ZM0.753904 17.9012C1.6856 17.5075 3.12424 17.5638 4.01483 17.9912L42.1868 36.077L62.821 26.2243C63.7116 25.7969 65.1776 25.7969 66.0819 26.2243C66.9862 26.6517 66.9862 27.349 66.0956 27.7764L44.1598 38.2365C43.0911 38.7538 41.3373 38.7538 40.2549 38.2365L39.4876 37.8765L38.9533 37.6178L0.685398 19.4871C-0.246294 19.0484 -0.232593 18.3173 0.753904 17.9012ZM66.123 33.4338L44.1872 43.8939C43.1185 44.4113 41.3647 44.4113 40.2823 43.8939L39.5287 43.534L38.9807 43.2753L0.7128 25.1445C-0.218891 24.7059 -0.191489 23.9748 0.795009 23.5586C1.713 23.165 3.16534 23.2212 4.05593 23.6486L42.2142 41.7344L62.8484 31.8929C63.7527 31.4655 65.205 31.4655 66.1093 31.8929C67.0136 32.3091 67.0273 33.0064 66.123 33.4338Z" fill="#274381"/>
</svg>
