<svg width="40" height="40" viewBox="0 0 40 40" fill="none" xmlns="http://www.w3.org/2000/svg">
<path d="M39.9395 15.185C39.7945 14.7172 39.4087 14.3762 38.9443 14.3055L26.618 12.4273L21.1058 0.720428C20.8981 0.279315 20.4695 0 20.0003 0C19.5309 0 19.1024 0.279315 18.8946 0.720428L13.3824 12.4273L1.05579 14.3055C0.591212 14.3763 0.205378 14.7173 0.0603823 15.185C-0.0846137 15.6528 0.0362163 16.1663 0.372403 16.5097L9.29196 25.6225L7.18656 38.4892C7.10732 38.9741 7.29736 39.4642 7.67695 39.7531C8.05653 40.0423 8.55991 40.0805 8.97534 39.8515L20.0003 33.7769L31.0251 39.8515C31.2054 39.9509 31.4025 39.9999 31.5987 39.9999C31.5998 39.9999 31.601 39.9999 31.6021 39.9999C31.6021 39.9999 31.6021 39.9999 31.6023 39.9999C32.2832 39.9999 32.8352 39.4213 32.8352 38.7076C32.8352 38.5992 32.8224 38.4939 32.7986 38.3933L30.7086 25.6222L39.6277 16.5095C39.9637 16.1665 40.0847 15.6528 39.9395 15.185ZM28.5232 24.2459C28.2325 24.5428 28.0998 24.9707 28.1686 25.3899L29.9615 36.3455L20.5742 31.1731C20.215 30.9751 19.7859 30.9751 19.4269 31.1731L10.0395 36.3455L11.8323 25.3899C11.9011 24.9707 11.7684 24.543 11.4777 24.2459L3.88288 16.4866L14.379 14.8874C14.7806 14.8262 15.1278 14.5619 15.3073 14.1804L20.0008 4.21246L24.6943 14.1804C24.8738 14.5618 25.221 14.8262 25.6224 14.8874L36.118 16.4866L28.5232 24.2459Z" fill="#274381"/>
</svg>
