<svg width="40" height="40" viewBox="0 0 40 40" fill="none" xmlns="http://www.w3.org/2000/svg">
<path d="M20 0C14.8728 0.0146244 9.94698 1.99783 6.24 5.54V2C6.24 1.46957 6.02928 0.960859 5.65421 0.585786C5.27914 0.210714 4.77043 0 4.24 0C3.70957 0 3.20086 0.210714 2.82579 0.585786C2.45071 0.960859 2.24 1.46957 2.24 2V11C2.24 11.5304 2.45071 12.0391 2.82579 12.4142C3.20086 12.7893 3.70957 13 4.24 13H13.24C13.7704 13 14.2791 12.7893 14.6542 12.4142C15.0293 12.0391 15.24 11.5304 15.24 11C15.24 10.4696 15.0293 9.96086 14.6542 9.58578C14.2791 9.21071 13.7704 9 13.24 9H8.44C11.0116 6.31272 14.439 4.60531 18.1331 4.17134C21.8271 3.73737 25.557 4.60395 28.6813 6.62209C31.8056 8.64023 34.1293 11.6838 35.2526 15.2296C36.376 18.7753 36.229 22.6017 34.8368 26.0508C33.4446 29.4999 30.8943 32.3562 27.6243 34.1286C24.3543 35.901 20.569 36.4788 16.9191 35.7626C13.2692 35.0465 9.98293 33.0811 7.62518 30.2044C5.26743 27.3277 3.98557 23.7194 4 20C4 19.4696 3.78929 18.9609 3.41421 18.5858C3.03914 18.2107 2.53043 18 2 18C1.46957 18 0.960859 18.2107 0.585786 18.5858C0.210714 18.9609 0 19.4696 0 20C0 23.9556 1.17298 27.8224 3.37061 31.1114C5.56823 34.4004 8.69181 36.9638 12.3463 38.4776C16.0008 39.9913 20.0222 40.3874 23.9018 39.6157C27.7814 38.844 31.3451 36.9392 34.1421 34.1421C36.9392 31.3451 38.844 27.7814 39.6157 23.9018C40.3874 20.0222 39.9913 16.0008 38.4776 12.3463C36.9638 8.69181 34.4004 5.56823 31.1114 3.37061C27.8224 1.17298 23.9556 0 20 0ZM20 12C19.4696 12 18.9609 12.2107 18.5858 12.5858C18.2107 12.9609 18 13.4696 18 14V20C18 20.5304 18.2107 21.0391 18.5858 21.4142C18.9609 21.7893 19.4696 22 20 22H24C24.5304 22 25.0391 21.7893 25.4142 21.4142C25.7893 21.0391 26 20.5304 26 20C26 19.4696 25.7893 18.9609 25.4142 18.5858C25.0391 18.2107 24.5304 18 24 18H22V14C22 13.4696 21.7893 12.9609 21.4142 12.5858C21.0391 12.2107 20.5304 12 20 12Z" fill="#274381"/>
</svg>
